# xmcd
#
# Track frame offsets: 
#        150
#        28232
#        66328
#        92566
#        110852
#        129212
#        141609
#        179548
#        206030
#        244600
#        269072
#
# Disc length: 4223 seconds
#
# Revision: 1
# Processed by: cddbd v1.5.2PL0 Copyright (c) Steve Scherf et al.
# Submitted via: ExactAudioCopy v1.0b4
#
DISCID=b1107d0b
DTITLE=Coleman Hawkins - Live from New York State
DYEAR=1958
DGENRE=Jazz
TTITLE0=Over the Rainbow
TTITLE1=Sweetheart You Are Loveley
TTITLE2=Stardust
TTITLE3=I Can't Get Started
TTITLE4=My Funny Valentine
TTITLE5=I'll See You In My Dreams
TTITLE6=Say it Isn't So
TTITLE7=Tea For Two
TTITLE8=How High The Moon
TTITLE9=Indiana
TTITLE10=Perdido
EXTD=YEAR: 1958
EXTT0=
EXTT1=
EXTT2=
EXTT3=
EXTT4=
EXTT5=
EXTT6=
EXTT7=
EXTT8=
EXTT9=
EXTT10=
PLAYORDER=
